<?xml version="1.0" encoding="UTF-8" standalone="no"?>
<svg
   xmlns="http://www.w3.org/2000/svg"
   enable-background="new 0 0 243.238 87.344"
   viewBox="0 0 349.99999 130"
   height="130"
   width="350"
   y="0px"
   x="0px"
   version="1.1">
  <g transform="translate(2)">
    <path
       d="m 33.465486,68.931408 c 0,1.665289 -0.33588,3.120299 -0.992116,4.366443 -0.650592,1.234854 -1.553799,2.28201 -2.712445,3.13159 -1.162879,0.8397 -2.507812,1.483235 -4.034797,1.917904 -1.515694,0.441725 -3.137234,0.661882 -4.850505,0.661882 H 2 v -39.0736 h 20.903605 c 1.361868,0 2.591076,0.296364 3.681982,0.882038 1.097961,0.588496 2.035039,1.354811 2.801354,2.2933 0.777605,0.925788 1.377391,1.989879 1.807826,3.175338 0.424789,1.189694 0.639301,2.397734 0.639301,3.615652 0,1.896736 -0.479829,3.687627 -1.43243,5.35856 -0.959658,1.676582 -2.353984,2.915669 -4.190036,3.704564 2.232616,0.661882 3.996693,1.857221 5.292231,3.571903 1.306828,1.709038 1.961653,3.842865 1.961653,6.394426 z m -7.650448,-1.43243 c 0,-0.690107 -0.121369,-1.350577 -0.352816,-1.984234 -0.237091,-0.646358 -0.563093,-1.202395 -0.970947,-1.676579 -0.396565,-0.479828 -0.876394,-0.865103 -1.433842,-1.145944 -0.544747,-0.276607 -1.15159,-0.419145 -1.807826,-0.419145 H 9.5855306 V 72.571052 H 20.875623 c 0.688695,0 1.333642,-0.121369 1.940484,-0.376807 0.611076,-0.259672 1.145944,-0.622367 1.587669,-1.081027 0.434669,-0.451603 0.781839,-0.992116 1.035866,-1.608838 0.248382,-0.628011 0.375396,-1.299771 0.375396,-2.005402 z M 9.5855306,46.417551 v 9.857664 H 19.705687 c 1.291304,0 2.387854,-0.441725 3.286828,-1.323766 0.891917,-0.876393 1.344932,-2.083022 1.344932,-3.615652 0,-1.511461 -0.4135,-2.712445 -1.234854,-3.594483 -0.826999,-0.876393 -1.847341,-1.323763 -3.06526,-1.323763 z m 0,0"
       style="fill:#ffffff;stroke-width:1.41126156" />
    <path
       d="m 34.772315,79.009227 15.413798,-39.0736 h 6.151689 l 15.370049,39.0736 H 63.659426 L 60.087523,69.263055 H 46.394053 L 42.79957,79.009227 Z M 53.273953,48.137878 47.650076,63.927075 h 11.069935 z m 0,0"
       style="fill:#ffffff;stroke-width:1.41126156" />
    <path
       d="m 75.979739,79.009227 v -39.0736 h 17.266785 c 1.802181,0 3.467469,0.379629 4.983164,1.123364 1.526985,0.750791 2.845102,1.748553 3.947302,2.977762 1.09655,1.223563 1.96306,2.61789 2.57978,4.190035 0.62801,1.559444 0.94837,3.124533 0.94837,4.696678 0,2.530395 -0.64495,4.833574 -1.9179,6.901072 -1.26873,2.073143 -2.98341,3.577548 -5.138407,4.499101 l 9.195777,14.685588 H 99.265554 L 91.063302,65.911309 H 83.56527 V 79.009227 Z M 83.56527,59.251566 h 9.526015 c 0.690107,0 1.335053,-0.159473 1.940484,-0.485474 0.612488,-0.335881 1.147356,-0.781839 1.58767,-1.344933 0.436079,-0.567327 0.78325,-1.240498 1.037277,-2.006816 0.258261,-0.777605 0.396564,-1.608838 0.396564,-2.490877 0,-0.921554 -0.148182,-1.769722 -0.440313,-2.536037 -0.297776,-0.76067 -0.695752,-1.433841 -1.191105,-2.006814 -0.502409,-0.567327 -1.075381,-1.014697 -1.720328,-1.323763 -0.633656,-0.30201 -1.284248,-0.462894 -1.940484,-0.462894 h -9.19578 z m 0,0"
       style="fill:#ffffff;stroke-width:1.41126156" />
    <path
       d="m 141.44393,46.593958 h -12.43604 v 32.415269 h -7.58553 V 46.593958 h -12.50378 v -6.658331 h 32.52535 z m 0,0"
       style="fill:#ffffff;stroke-width:1.41126156" />
    <path
       d="m 161.39493,79.274544 c -2.75055,0 -5.26401,-0.55886 -7.54178,-1.676579 -2.28201,-1.113485 -4.23943,-2.602366 -5.8652,-4.453941 -1.63142,-1.847342 -2.8945,-3.969879 -3.77089,-6.350677 -0.88204,-2.376564 -1.32236,-4.818047 -1.32236,-7.321625 0,-2.596721 0.46854,-5.093245 1.41126,-7.475455 0.93708,-2.392088 2.23685,-4.503335 3.90214,-6.328096 1.67094,-1.836051 3.64388,-3.296707 5.91037,-4.387612 2.27636,-1.086672 4.763,-1.63283 7.45287,-1.63283 2.7449,0 5.25412,0.584262 7.5192,1.742908 2.27636,1.16288 4.22249,2.678575 5.84403,4.542851 1.6159,1.86851 2.86628,4.000926 3.74831,6.394426 0.8764,2.380798 1.32377,4.801114 1.32377,7.253887 0,2.602366 -0.47419,5.089009 -1.41126,7.454283 -0.94273,2.369508 -2.23827,4.465231 -3.88097,6.284347 -1.64836,1.807826 -3.61142,3.258603 -5.88779,4.343863 -2.28342,1.075382 -4.75877,1.61025 -7.4317,1.61025 z M 150.54515,59.471722 c 0,1.692103 0.24838,3.324932 0.75079,4.895667 0.49536,1.576379 1.21228,2.970705 2.13806,4.190035 0.93708,1.206629 2.08444,2.177576 3.44066,2.911432 1.36187,0.73809 2.91143,1.103607 4.63035,1.103607 1.75843,0 3.31364,-0.376807 4.65293,-1.124776 1.33364,-0.745146 2.45842,-1.748553 3.37432,-3.000341 0.92015,-1.244733 1.62013,-2.65035 2.09432,-4.211205 0.47983,-1.553799 0.72821,-3.141468 0.72821,-4.763007 0,-1.686458 -0.25967,-3.317876 -0.77196,-4.894258 -0.51794,-1.583435 -1.24615,-2.983407 -2.18322,-4.190035 -0.92579,-1.202395 -2.0675,-2.166287 -3.41808,-2.888853 -1.33929,-0.716921 -2.85075,-1.081026 -4.52027,-1.081026 -1.76408,0 -3.31929,0.386686 -4.65293,1.147356 -1.33929,0.749379 -2.481,1.747141 -3.41807,2.97635 -0.94273,1.223564 -1.65965,2.613656 -2.13948,4.167455 -0.47418,1.559447 -0.70563,3.147116 -0.70563,4.761599 z m 0,0"
       style="fill:#ffffff;stroke-width:1.41126156" />
    <path
       d="m 183.67734,59.185236 c 0,-2.375153 0.41914,-4.72914 1.25743,-7.05631 0.84958,-2.331404 2.07315,-4.415837 3.66081,-6.240598 1.59896,-1.836052 3.55638,-3.317876 5.86521,-4.453942 2.30459,-1.14171 4.9507,-1.720327 7.93834,-1.720327 3.47876,0 6.49463,0.800185 9.04054,2.382209 2.55298,1.576379 4.43842,3.626942 5.64505,6.151689 l -5.84403,4.013628 c -0.44173,-1.096551 -1.00906,-2.029395 -1.69775,-2.778774 -0.69434,-0.743735 -1.46066,-1.344933 -2.2933,-1.785246 -0.827,-0.43608 -1.68081,-0.762081 -2.55862,-0.970948 -0.88204,-0.204633 -1.72597,-0.309066 -2.51345,-0.309066 -1.80783,0 -3.38985,0.39233 -4.74043,1.168524 -1.35622,0.766315 -2.48664,1.769722 -3.3955,2.998931 -0.89897,1.224975 -1.57638,2.619301 -2.02939,4.190035 -0.45725,1.560858 -0.68305,3.103367 -0.68305,4.630352 0,1.737263 0.26532,3.406785 0.79454,5.005745 0.52358,1.587669 1.2786,2.993285 2.24955,4.211204 0.9653,1.206629 2.12818,2.178988 3.4844,2.911432 1.36187,0.722566 2.85499,1.081027 4.47653,1.081027 0.83264,0 1.69774,-0.09879 2.57978,-0.309067 0.87639,-0.214511 1.73162,-0.56027 2.55862,-1.034454 0.83264,-0.48124 1.59896,-1.103607 2.2933,-1.852987 0.68869,-0.76067 1.25743,-1.676578 1.69775,-2.733613 l 6.21801,3.571903 c -0.5899,1.471946 -1.44372,2.767484 -2.55861,3.880969 -1.11913,1.11913 -2.39209,2.067498 -3.81464,2.846514 -1.4282,0.764904 -2.93825,1.354811 -4.52027,1.764077 -1.57638,0.389508 -3.13724,0.594141 -4.67551,0.594141 -2.72374,0 -5.21461,-0.584262 -7.47546,-1.764077 -2.24955,-1.174169 -4.19568,-2.701154 -5.82145,-4.586599 -1.63142,-1.88968 -2.90014,-4.040442 -3.79347,-6.438175 -0.89897,-2.411846 -1.34493,-4.864619 -1.34493,-7.368197 z m 0,0"
       style="fill:#ffffff;stroke-width:1.41126156" />
    <rect
       x="222.0072"
       y="71.093445"
       width="6.0641904"
       height="7.9143543"
       style="stroke-width:1.41126156" />
    <path
       d="m 247.90667,79.56103 c -2.33705,0 -4.44829,-0.407855 -6.32809,-1.213685 -1.86852,-0.804419 -3.45618,-1.895324 -4.76301,-3.264248 -1.29554,-1.378802 -2.29895,-2.966472 -2.99893,-4.763007 -0.69434,-1.802181 -1.03587,-3.693272 -1.03587,-5.667627 0,-2.022337 0.34153,-3.936008 1.03587,-5.732544 0.69998,-1.792302 1.70339,-3.379971 2.99893,-4.76301 1.30683,-1.378803 2.89449,-2.469708 4.76301,-3.264248 1.8798,-0.804419 3.99104,-1.212274 6.32809,-1.212274 2.34834,0 4.45394,0.407855 6.30693,1.212274 1.84734,0.79454 3.42372,1.885445 4.71926,3.264248 1.30683,1.383039 2.30459,2.970708 2.99893,4.76301 0.69998,1.796536 1.05844,3.710207 1.05844,5.732544 0,1.974355 -0.35846,3.864034 -1.05844,5.667627 -0.69434,1.796535 -1.68081,3.384205 -2.95518,4.763007 -1.27861,1.368924 -2.86063,2.458418 -4.74043,3.264248 -1.86992,0.80583 -3.98117,1.213685 -6.32951,1.213685 z m -7.54178,-14.907155 c 0,1.278603 0.1877,2.442893 0.57297,3.484404 0.39092,1.047156 0.93143,1.958831 1.61025,2.735025 0.67317,0.766315 1.4663,1.361867 2.38221,1.786657 0.92014,0.4135 1.91791,0.618133 2.97635,0.618133 1.06974,0 2.06185,-0.206045 2.97635,-0.618133 0.91027,-0.42479 1.70339,-1.020342 2.38221,-1.786657 0.6887,-0.776194 1.22357,-1.697748 1.61025,-2.756194 0.38104,-1.069736 0.57297,-2.248139 0.57297,-3.528153 0,-1.246144 -0.19334,-2.403379 -0.57297,-3.461825 -0.38527,-1.069736 -0.92014,-1.989879 -1.61025,-2.756194 -0.6774,-0.76067 -1.47194,-1.356222 -2.38221,-1.786657 -0.9145,-0.423378 -1.90802,-0.639301 -2.97635,-0.639301 -1.05844,0 -2.05621,0.225802 -2.97635,0.661882 -0.9145,0.441724 -1.70904,1.052801 -2.38221,1.830406 -0.6774,0.766315 -1.21792,1.686457 -1.61025,2.756193 -0.38527,1.057035 -0.57297,2.21427 -0.57297,3.460414 z m 0,0"
       style="stroke-width:1.41126156" />
    <path
       d="m 285.09482,56.561701 c -2.24955,0.03246 -4.26201,0.457249 -6.02044,1.278603 -1.75278,0.826999 -3.01586,2.067498 -3.79347,3.727142 v 17.441781 h -7.36537 V 50.167272 h 6.76982 v 6.174272 c 0.98083,-1.980002 2.27072,-3.578962 3.85839,-4.78559 1.59896,-1.217919 3.28541,-1.830406 5.04949,-1.830406 0.40786,0 0.71128,0.01693 0.90462,0.04375 0.20463,0.01693 0.40221,0.03952 0.59555,0.06633 v 6.726075 z m 0,0"
       style="stroke-width:1.41126156" />
    <path
       d="m 300.53685,79.163054 c -1.89674,0 -3.64953,-0.381041 -5.24848,-1.147355 -1.60461,-0.76067 -2.97071,-1.813472 -4.10113,-3.151347 -1.13607,-1.351989 -2.0181,-2.901554 -2.64612,-4.65293 -0.61813,-1.759843 -0.92578,-3.639643 -0.92578,-5.623877 0,-2.083022 0.33023,-4.023506 0.99211,-5.821453 0.65624,-1.802181 1.57074,-3.384208 2.73503,-4.740431 1.17417,-1.361867 2.57978,-2.431603 4.2112,-3.197918 1.64271,-0.76067 3.45054,-1.145944 5.42489,-1.145944 2.27637,0 4.26201,0.512287 5.95411,1.521339 1.68646,1.003407 3.06526,2.34834 4.12371,4.034797 v -5.070663 h 6.43959 v 27.474442 c 0,2.111247 -0.40221,4.019273 -1.19111,5.711376 -0.78325,1.686457 -1.89109,3.120299 -3.32916,4.300113 -1.4282,1.17417 -3.11466,2.073143 -5.0495,2.689865 -1.94048,0.629422 -4.07431,0.948367 -6.39442,0.948367 -3.19228,0 -5.85956,-0.534868 -8.00468,-1.587669 -2.14935,-1.047156 -3.99669,-2.519102 -5.53497,-4.410192 l 4.0348,-3.924718 c 1.08667,1.361867 2.46971,2.433015 4.14629,3.19933 1.67093,0.776193 3.46182,1.168524 5.35856,1.168524 1.14171,0 2.23826,-0.166529 3.28541,-0.486885 1.04151,-0.309066 1.95178,-0.798774 2.73503,-1.453599 0.78889,-0.663293 1.4169,-1.511461 1.87415,-2.537449 0.46854,-1.03022 0.70563,-2.23826 0.70563,-3.617063 v -3.638232 c -0.95965,1.648353 -2.30459,2.921311 -4.03479,3.81464 -1.72456,0.898973 -3.58178,1.344932 -5.56037,1.344932 z m 2.53462,-5.886372 c 0.80442,0 1.57638,-0.121368 2.31588,-0.376806 0.73386,-0.259673 1.39997,-0.606843 2.00682,-1.034455 0.60119,-0.437491 1.13606,-0.955424 1.61025,-1.545331 0.47982,-0.584263 0.85945,-1.212274 1.12477,-1.874156 v -6.8799 c -0.66188,-1.687868 -1.6921,-3.049736 -3.08784,-4.079957 -1.39997,-1.025987 -2.87192,-1.54392 -4.41019,-1.54392 -1.13607,0 -2.17193,0.254027 -3.10901,0.750791 -0.92579,0.500998 -1.72597,1.16288 -2.38221,1.984234 -0.66188,0.826999 -1.17417,1.775367 -1.52134,2.843692 -0.35281,1.058446 -0.52922,2.156408 -0.52922,3.286828 0,1.178403 0.19899,2.28201 0.59555,3.306586 0.40785,1.030221 0.97518,1.934839 1.69775,2.712444 0.71692,0.766315 1.56509,1.373158 2.53603,1.807826 0.96531,0.431846 2.01811,0.642124 3.15276,0.642124 z m 0,0"
       style="stroke-width:1.41126156" />
    <g transform="matrix(1.4112615,0,0,1.4112615,2,2.7347734)">
      <path
         d="m 168.586,67.949 c 7.214,9.187 18.42,15.098 30.979,15.098 21.711,0 39.375,-17.663 39.375,-39.374 0,-21.712 -17.664,-39.376 -39.375,-39.376 -16.499,0 -30.661,10.201 -36.51,24.627 h -4.6 C 164.518,12.079 180.658,0 199.566,0 c 24.081,0 43.672,19.591 43.672,43.673 0,24.08 -19.591,43.671 -43.672,43.671 -15.104,0 -28.44,-7.707 -36.286,-19.394" />
    </g>
  </g>
</svg>
